<svg width="120" height="134" viewBox="0 0 120 134" fill="none" xmlns="http://www.w3.org/2000/svg">
<path d="M23.5 24C46.4965 46.1408 55.8836 59.4063 58.5 86.5" stroke="white" stroke-width="3"/>
<path d="M95 46.5C79.5 64.5 80 62 73.5 86.5" stroke="white" stroke-width="3"/>
<path d="M84 37.5C87.933 37.0684 90.397 39.7819 95 47M95 47C85.5952 45.2622 82.4705 45.7364 79 48M95 47C97.8583 56.3893 98.4054 59.5415 95 63M95 47C102.18 52.0655 105.318 54.7401 105.5 58.5M95 47C104.125 45.4543 107.425 45.7376 110 48M95 47C96.5 40.5 98.5 35 94 32" stroke="white" stroke-width="3"/>
<path d="M24 24.5C13.7459 31.1125 10.3553 34.836 8 41.5M24 24.5C13.3521 21.0337 8.21376 20.9179 1 25M24 24.5C21.5293 11.2657 20.9437 5.08873 25 2M24 24.5C21.6958 36.4609 22.0542 41.4625 25 48M24 24.5C36.2438 21.406 41.6659 21.585 49 25M24 24.5C29.5868 16.5469 33.0472 12.4755 42 8.5" stroke="white" stroke-width="3"/>
<path d="M9 129.5C19.1286 134.198 25.9869 132.859 36.1933 126.725C39.7519 124.586 44.2001 124.668 47.7894 126.755C59.4961 133.561 67.9621 133.095 79.5611 126.216C83.4618 123.902 88.3634 124.121 92.0931 126.701C101.404 133.143 108.344 133.871 119.5 130" stroke="white" stroke-width="3"/>
<path d="M34 115C34.0002 76.3503 93.9998 75.8528 94 115" stroke="white" stroke-width="3"/>
</svg>
