<?xml version="1.0" standalone="no"?>
<!DOCTYPE svg PUBLIC "-//W3C//DTD SVG 20010904//EN"
 "http://www.w3.org/TR/2001/REC-SVG-20010904/DTD/svg10.dtd">
<svg version="1.0" xmlns="http://www.w3.org/2000/svg"
 width="232.000000pt" height="232.000000pt" viewBox="0 0 232.000000 232.000000"
 preserveAspectRatio="xMidYMid meet">
<metadata>
Created by potrace 1.14, written by Peter Selinger 2001-2017
</metadata>
<g transform="translate(0.000000,232.000000) scale(0.100000,-0.100000)"
fill="#fff" stroke="none">
<path d="M516 2283 c-14 -21 -30 -59 -37 -86 -12 -49 -8 -197 6 -231 7 -16 5
-18 -11 -12 -10 5 -60 11 -110 13 -137 8 -254 -34 -254 -91 0 -48 38 -58 97
-26 47 25 109 34 178 25 l55 -6 -57 -43 c-138 -101 -205 -276 -106 -276 24 0
47 28 57 71 6 28 72 108 114 138 l27 19 0 -117 c0 -110 2 -119 30 -171 26 -47
34 -55 59 -55 40 0 54 25 37 67 -41 102 -48 192 -20 267 10 24 10 24 75 -40
188 -185 313 -410 385 -698 32 -126 36 -171 15 -171 -7 0 -46 -17 -87 -37
-148 -74 -263 -227 -290 -389 -15 -86 -8 -121 27 -130 39 -10 56 15 66 93 10
85 61 193 118 252 244 249 670 154 772 -172 10 -33 18 -75 18 -96 0 -64 52
-105 88 -69 29 29 2 183 -50 282 -42 79 -156 193 -226 225 l-53 25 7 40 c18
110 81 268 147 366 33 49 117 140 129 140 14 0 9 -79 -7 -117 -21 -50 -19 -72
9 -84 50 -23 99 44 100 138 1 30 5 52 11 50 6 -2 23 -29 38 -60 26 -54 31 -58
59 -55 17 2 36 10 41 20 17 26 -7 89 -54 142 -36 41 -38 46 -20 46 12 0 38 -7
58 -15 49 -21 80 -19 93 5 17 32 3 56 -45 79 -32 15 -65 21 -112 21 l-68 0 -1
68 c-1 109 -50 181 -104 152 -24 -13 -25 -35 -5 -83 8 -20 15 -48 15 -62 l0
-27 -31 32 c-66 65 -157 91 -179 50 -17 -32 -3 -56 44 -74 24 -9 52 -26 61
-36 18 -20 17 -20 -36 -20 -37 0 -69 -7 -99 -22 -38 -19 -45 -28 -45 -52 0
-44 25 -54 82 -33 46 17 113 23 113 11 0 -3 -23 -31 -51 -62 -103 -116 -187
-282 -225 -445 l-18 -77 -87 2 -86 3 -22 103 c-65 305 -200 571 -397 781 l-85
90 28 8 c59 17 175 8 232 -17 60 -26 84 -21 89 22 7 60 -109 103 -254 96 -84
-5 -92 -3 -84 11 22 40 100 103 155 124 54 21 60 26 63 55 5 49 -28 59 -100
32 -73 -27 -129 -68 -175 -129 -21 -28 -41 -50 -44 -50 -11 -1 -20 98 -13 137
4 20 15 54 25 74 22 43 24 69 7 86 -24 24 -57 13 -82 -25z"/>
<path d="M784 220 c-149 -124 -295 -157 -448 -100 -70 27 -99 16 -94 -33 3
-29 9 -34 63 -56 81 -33 218 -40 301 -16 73 21 137 53 197 99 l47 36 65 -46
c98 -68 173 -96 281 -102 128 -7 234 27 356 114 l47 33 73 -49 c102 -68 167
-91 268 -97 134 -8 261 27 268 75 7 50 -35 65 -102 37 -125 -53 -282 -17 -430
99 -33 25 -67 46 -76 46 -9 0 -43 -21 -76 -46 -115 -90 -232 -131 -339 -120
-73 8 -177 56 -259 120 -33 25 -67 46 -77 46 -9 0 -39 -18 -65 -40z"/>
</g>
</svg>
